<svg width="660.4px" height="124.4px" xmlns="http://www.w3.org/2000/svg" viewBox="-80.17998046874999 12.780004882812499 660.3599609375 124.439990234375" style="background: #051103" preserveAspectRatio="xMidYMid"><defs><linearGradient id="editing-glowing-gradient" x1="0.8146601955249185" x2="0.18533980447508147" y1="0.8885729807284856" y2="0.11142701927151444"><stop offset="0" stop-color="#ff4343"></stop><stop offset="1" stop-color="#45ffff"></stop></linearGradient><filter id="editing-glowing" x="-100%" y="-100%" width="300%" height="300%"><feGaussianBlur in="SourceGraphic" result="blur" stdDeviation="10"></feGaussianBlur><feMerge><feMergeNode in="blur"></feMergeNode><feMergeNode in="SourceGraphic"></feMergeNode></feMerge></filter></defs><g filter="url(#editing-glowing)"><g transform="matrix(1.2,0,0,1.8,-2.4,98.4)"><path d="M -14.8 2.8 L -28.8 2.8 L -20.6 -39.5 L -6.6 -39.5 L -14.8 2.8 Z M 40.9 4.1 L 40.9 4.1 L 40.9 4.1 Q 33.2 4.1 33.2 -2 L 33.2 -2 L 33.2 -2 Q 33.2 -4.6 34.3 -9.7 L 34.3 -9.7 L 34.3 -9.7 Q 35.4 -14.8 35.8 -16.8 L 35.8 -16.8 L 35.8 -16.8 Q 36.7 -21.5 36.7 -22.9 L 36.7 -22.9 L 36.7 -22.9 Q 36.7 -26.2 34.3 -26.2 L 34.3 -26.2 L 34.3 -26.2 Q 32.7 -26.2 31.1 -24 L 31.1 -24 L 31.1 -24 Q 29.6 -21.8 28.9 -17.4 L 28.9 -17.4 L 24.9 2.8 L 12.4 4.1 L 15.9 -13.3 L 15.9 -13.3 Q 16.5 -16.2 17 -19.5 L 17 -19.5 L 17 -19.5 Q 17.5 -22.8 17.5 -23.3 L 17.5 -23.3 L 17.5 -23.3 Q 17.5 -26.2 15.3 -26.2 L 15.3 -26.2 L 15.3 -26.2 Q 13.9 -26.2 12.3 -24 L 12.3 -24 L 12.3 -24 Q 10.7 -21.9 9.8 -17.4 L 9.8 -17.4 L 5.9 2.8 L -6.8 4.1 L 0 -29.9 L 10.4 -31.1 L 9.3 -24.7 L 9.3 -24.7 Q 11 -28.1 14 -29.6 L 14 -29.6 L 14 -29.6 Q 17.1 -31.1 21.9 -31.1 L 21.9 -31.1 L 21.9 -31.1 Q 24.7 -31.1 26.5 -29.8 L 26.5 -29.8 L 26.5 -29.8 Q 28.3 -28.4 28.8 -26.3 L 28.8 -26.3 L 28.8 -26.3 Q 29.9 -28.5 32.7 -29.8 L 32.7 -29.8 L 32.7 -29.8 Q 35.5 -31.1 38.9 -31.1 L 38.9 -31.1 L 38.9 -31.1 Q 42.3 -31.1 44 -30.4 L 44 -30.4 L 44 -30.4 Q 45.7 -29.7 46.7 -28.4 L 46.7 -28.4 L 46.7 -28.4 Q 48.5 -26.2 48.5 -22.1 L 48.5 -22.1 L 48.5 -22.1 Q 48.5 -18.1 46.7 -9.7 L 46.7 -9.7 L 46.7 -9.7 Q 45.9 -5.6 45.9 -4.1 L 45.9 -4.1 L 45.9 -4.1 Q 45.9 -2.6 46.7 -1.7 L 46.7 -1.7 L 46.7 -1.7 Q 47.6 -0.8 48.9 -0.7 L 48.9 -0.7 L 48.9 -0.7 Q 48.2 1.5 46 2.8 L 46 2.8 L 46 2.8 Q 43.8 4.1 40.9 4.1 Z M 56.6 0.9 L 56.6 0.9 L 56.6 0.9 Q 55.1 -0.8 54.4 -3.4 L 54.4 -3.4 L 54.4 -3.4 Q 53.7 -6 53.7 -10.3 L 53.7 -10.3 L 53.7 -10.3 Q 53.7 -14.6 55.2 -18.5 L 55.2 -18.5 L 55.2 -18.5 Q 56.7 -22.4 59.4 -25.2 L 59.4 -25.2 L 59.4 -25.2 Q 64.9 -31.1 73.9 -31.1 L 73.9 -31.1 L 73.9 -31.1 Q 77.2 -31.1 79.6 -30 L 79.6 -30 L 90.5 -31.1 L 85.8 -6.2 L 85.8 -6.2 Q 85.6 -5.4 85.6 -4 L 85.6 -4 L 85.6 -4 Q 85.6 -2.6 86.5 -1.7 L 86.5 -1.7 L 86.5 -1.7 Q 87.3 -0.8 88.6 -0.7 L 88.6 -0.7 L 88.6 -0.7 Q 88 1.5 85.6 2.8 L 85.6 2.8 L 85.6 2.8 Q 83.3 4.1 80.7 4.1 L 80.7 4.1 L 80.7 4.1 Q 78 4.1 76.3 3.1 L 76.3 3.1 L 76.3 3.1 Q 74.5 2.1 74 0.4 L 74 0.4 L 74 0.4 Q 73 2 70.8 3 L 70.8 3 L 70.8 3 Q 68.6 4.1 65.7 4.1 L 65.7 4.1 L 65.7 4.1 Q 62.8 4.1 60.4 3.3 L 60.4 3.3 L 60.4 3.3 Q 58.1 2.5 56.6 0.9 Z M 70.1 -25.1 L 70.1 -25.1 L 70.1 -25.1 Q 69.3 -24 68.7 -22 L 68.7 -22 L 68.7 -22 Q 68.1 -20.1 67 -14.8 L 67 -14.8 L 67 -14.8 Q 65.9 -9.6 65.9 -5.9 L 65.9 -5.9 L 65.9 -5.9 Q 65.9 -2.2 66.5 -1.1 L 66.5 -1.1 L 66.5 -1.1 Q 67.1 0 68.1 0 L 68.1 0 L 68.1 0 Q 70.2 0 71.7 -2 L 71.7 -2 L 71.7 -2 Q 73.2 -3.9 73.8 -7.4 L 73.8 -7.4 L 77.1 -26.1 L 77.1 -26.1 Q 75.8 -27.3 74.2 -27.3 L 74.2 -27.3 L 74.2 -27.3 Q 72.7 -27.3 71.7 -26.8 L 71.7 -26.8 L 71.7 -26.8 Q 70.8 -26.3 70.1 -25.1 Z M 98.3 -24 L 98.3 -24 L 98.3 -24 Q 100.4 -27 103.7 -29.1 L 103.7 -29.1 L 103.7 -29.1 Q 107 -31.1 111.1 -31.1 L 111.1 -31.1 L 111.1 -31.1 Q 115.1 -31.1 117 -29.9 L 117 -29.9 L 129.6 -31.1 L 125.2 -6.6 L 125.2 -6.6 Q 123 6 118.2 10.9 L 118.2 10.9 L 118.2 10.9 Q 113.7 15.6 104.9 15.6 L 104.9 15.6 L 104.9 15.6 Q 98.1 15.6 94.3 13.5 L 94.3 13.5 L 94.3 13.5 Q 90.5 11.4 90.5 7.8 L 90.5 7.8 L 90.5 7.8 Q 90.5 5.2 92.4 3.7 L 92.4 3.7 L 92.4 3.7 Q 94.4 2.2 97.5 2.2 L 97.5 2.2 L 97.5 2.2 Q 100.2 2.2 102.2 3.4 L 102.2 3.4 L 102.2 3.4 Q 103.5 4.1 104 5 L 104 5 L 104 5 Q 102.6 6.2 102.6 8.4 L 102.6 8.4 L 102.6 8.4 Q 102.6 11.1 105.1 11.1 L 105.1 11.1 L 105.1 11.1 Q 109.4 11.1 111.8 1 L 111.8 1 L 111.8 1 Q 112.5 -1.8 113.1 -4.5 L 113.1 -4.5 L 113.1 -4.5 Q 110.2 -1 103.7 -1 L 103.7 -1 L 103.7 -1 Q 99.2 -1 96.5 -3.2 L 96.5 -3.2 L 96.5 -3.2 Q 93.9 -5.3 93.9 -10.5 L 93.9 -10.5 L 93.9 -10.5 Q 93.9 -13.7 95 -17.3 L 95 -17.3 L 95 -17.3 Q 96.1 -20.9 98.3 -24 Z M 106.6 -10.3 L 106.6 -10.3 L 106.6 -10.3 Q 106.6 -5.9 108.8 -5.9 L 108.8 -5.9 L 108.8 -5.9 Q 110.4 -5.9 111.8 -7.6 L 111.8 -7.6 L 111.8 -7.6 Q 113 -8.9 113.4 -10.9 L 113.4 -10.9 L 116.7 -27.4 L 116.7 -27.4 Q 116.4 -27.4 116.1 -27.6 L 116.1 -27.6 L 116.1 -27.6 Q 115.4 -27.8 114.6 -27.8 L 114.6 -27.8 L 114.6 -27.8 Q 110.7 -27.8 108.4 -21.4 L 108.4 -21.4 L 108.4 -21.4 Q 106.6 -16.4 106.6 -10.3 Z M 158 -8 L 158 -8 L 158 -8 Q 159.6 -6.9 159.6 -4.5 L 159.6 -4.5 L 159.6 -4.5 Q 159.6 -2.1 158.4 -0.6 L 158.4 -0.6 L 158.4 -0.6 Q 157.1 0.9 155.2 2 L 155.2 2 L 155.2 2 Q 151.1 4.1 146.7 4.1 L 146.7 4.1 L 146.7 4.1 Q 142.2 4.1 139.6 3.1 L 139.6 3.1 L 139.6 3.1 Q 137.1 2.1 135.3 0.4 L 135.3 0.4 L 135.3 0.4 Q 131.9 -3 131.9 -9.2 L 131.9 -9.2 L 131.9 -9.2 Q 131.9 -18.9 137.2 -24.8 L 137.2 -24.8 L 137.2 -24.8 Q 142.8 -31.1 152.6 -31.1 L 152.6 -31.1 L 152.6 -31.1 Q 158.7 -31.1 161.7 -28.6 L 161.7 -28.6 L 161.7 -28.6 Q 163.9 -26.7 163.9 -23.5 L 163.9 -23.5 L 163.9 -23.5 Q 163.9 -12.3 144.5 -12.3 L 144.5 -12.3 L 144.5 -12.3 Q 144.2 -10.6 144.2 -9.2 L 144.2 -9.2 L 144.2 -9.2 Q 144.2 -6.2 145.5 -5.1 L 145.5 -5.1 L 145.5 -5.1 Q 146.8 -4 149.3 -4 L 149.3 -4 L 149.3 -4 Q 151.7 -4 154.3 -5.1 L 154.3 -5.1 L 154.3 -5.1 Q 156.9 -6.2 158 -8 Z M 144.9 -15 L 144.9 -15 L 144.9 -15 Q 149.5 -15 152.1 -17.8 L 152.1 -17.8 L 152.1 -17.8 Q 154.7 -20.5 154.7 -24.8 L 154.7 -24.8 L 154.7 -24.8 Q 154.7 -26.3 154.2 -27.1 L 154.2 -27.1 L 154.2 -27.1 Q 153.6 -27.9 152.5 -27.9 L 152.5 -27.9 L 152.5 -27.9 Q 151.5 -27.9 150.5 -27.5 L 150.5 -27.5 L 150.5 -27.5 Q 149.6 -27 148.6 -25.6 L 148.6 -25.6 L 148.6 -25.6 Q 146.3 -22.4 144.9 -15 Z M 185.2 -19.7 L 185.2 -19.7 L 185.2 -19.7 Q 186.1 -22 186.1 -24.1 L 186.1 -24.1 L 186.1 -24.1 Q 186.1 -27.9 183.1 -27.9 L 183.1 -27.9 L 183.1 -27.9 Q 181.5 -27.9 180.2 -26.4 L 180.2 -26.4 L 180.2 -26.4 Q 178.8 -25 178.8 -23.2 L 178.8 -23.2 L 178.8 -23.2 Q 178.8 -21.9 179.9 -20.9 L 179.9 -20.9 L 179.9 -20.9 Q 181.3 -19.5 185.1 -17.2 L 185.1 -17.2 L 185.1 -17.2 Q 188.9 -14.9 190.3 -13 L 190.3 -13 L 190.3 -13 Q 191.8 -11.1 191.8 -8.5 L 191.8 -8.5 L 191.8 -8.5 Q 191.8 -5.9 190.5 -3.6 L 190.5 -3.6 L 190.5 -3.6 Q 189.3 -1.2 187 0.5 L 187 0.5 L 187 0.5 Q 182.2 4.1 174.6 4.1 L 174.6 4.1 L 174.6 4.1 Q 170.4 4.1 167.2 1.9 L 167.2 1.9 L 167.2 1.9 Q 164 -0.2 164 -2.7 L 164 -2.7 L 164 -2.7 Q 164 -5.2 165.8 -6.7 L 165.8 -6.7 L 165.8 -6.7 Q 167.6 -8.2 170.3 -8.2 L 170.3 -8.2 L 170.3 -8.2 Q 173 -8.2 174.7 -7.1 L 174.7 -7.1 L 174.7 -7.1 Q 173.9 -5 173.9 -3.6 L 173.9 -3.6 L 173.9 -3.6 Q 173.9 0.6 177.4 0.6 L 177.4 0.6 L 177.4 0.6 Q 179 0.6 180 -0.4 L 180 -0.4 L 180 -0.4 Q 181 -1.3 181 -3 L 181 -3 L 181 -3 Q 181 -6.2 175.5 -9.7 L 175.5 -9.7 L 175.5 -9.7 Q 171 -12.6 170 -13.8 L 170 -13.8 L 170 -13.8 Q 168.3 -15.8 168.3 -18.4 L 168.3 -18.4 L 168.3 -18.4 Q 168.3 -21 169.5 -23.4 L 169.5 -23.4 L 169.5 -23.4 Q 170.7 -25.8 173 -27.6 L 173 -27.6 L 173 -27.6 Q 177.6 -31.1 185.8 -31.1 L 185.8 -31.1 L 185.8 -31.1 Q 189.9 -31.1 192.4 -29.5 L 192.4 -29.5 L 192.4 -29.5 Q 194.8 -27.8 194.8 -25 L 194.8 -25 L 194.8 -25 Q 194.8 -22.2 193.1 -20.6 L 193.1 -20.6 L 193.1 -20.6 Q 191.5 -19 188.4 -19 L 188.4 -19 L 188.4 -19 Q 186.3 -19 185.2 -19.7 Z M 236.3 -17.8 L 249.2 -19 L 249.2 -19 Q 244.6 -8.9 244.6 2.8 L 244.6 2.8 L 244.6 2.8 Q 242.9 4.1 240.4 4.1 L 240.4 4.1 L 240.4 4.1 Q 237.9 4.1 236.3 2.9 L 236.3 2.9 L 236.3 2.9 Q 234.7 1.7 234.3 0.5 L 234.3 0.5 L 234.3 0.5 Q 232.7 2.1 230.1 3.1 L 230.1 3.1 L 230.1 3.1 Q 227.5 4.1 224.8 4.1 L 224.8 4.1 L 224.8 4.1 Q 222 4.1 219.6 3.2 L 219.6 3.2 L 219.6 3.2 Q 217.2 2.3 215.4 0.3 L 215.4 0.3 L 215.4 0.3 Q 211.3 -4.1 211.3 -12.3 L 211.3 -12.3 L 211.3 -12.3 Q 211.3 -25.1 218.1 -32.8 L 218.1 -32.8 L 218.1 -32.8 Q 225.2 -40.7 237.7 -40.7 L 237.7 -40.7 L 237.7 -40.7 Q 246.3 -40.7 249.4 -36.3 L 249.4 -36.3 L 249.4 -36.3 Q 250.3 -34.8 250.3 -33.2 L 250.3 -33.2 L 250.3 -33.2 Q 250.3 -31.5 249.6 -30 L 249.6 -30 L 249.6 -30 Q 248.9 -28.6 247.7 -27.4 L 247.7 -27.4 L 247.7 -27.4 Q 245 -24.9 241.6 -24.9 L 241.6 -24.9 L 241.6 -24.9 Q 240.2 -24.9 238.9 -25.3 L 238.9 -25.3 L 238.9 -25.3 Q 239.2 -27.2 239.2 -29.5 L 239.2 -29.5 L 239.2 -29.5 Q 239.2 -31.7 239 -32.7 L 239 -32.7 L 239 -32.7 Q 238.9 -33.8 238.5 -34.6 L 238.5 -34.6 L 238.5 -34.6 Q 237.7 -36.3 235.8 -36.3 L 235.8 -36.3 L 235.8 -36.3 Q 234 -36.3 232 -34.4 L 232 -34.4 L 232 -34.4 Q 230 -32.4 228.4 -29.2 L 228.4 -29.2 L 228.4 -29.2 Q 224.9 -22 224.9 -13.4 L 224.9 -13.4 L 224.9 -13.4 Q 224.9 -9.4 226.4 -6.6 L 226.4 -6.6 L 226.4 -6.6 Q 228.1 -3.6 231 -3.6 L 231 -3.6 L 231 -3.6 Q 232 -3.6 233 -4.1 L 233 -4.1 L 233 -4.1 Q 233.9 -4.6 234.3 -5 L 234.3 -5 L 236.3 -17.8 Z M 255.2 0.9 L 255.2 0.9 L 255.2 0.9 Q 253.7 -0.8 253 -3.4 L 253 -3.4 L 253 -3.4 Q 252.3 -6 252.3 -10.3 L 252.3 -10.3 L 252.3 -10.3 Q 252.3 -14.6 253.8 -18.5 L 253.8 -18.5 L 253.8 -18.5 Q 255.3 -22.4 257.9 -25.2 L 257.9 -25.2 L 257.9 -25.2 Q 263.5 -31.1 272.5 -31.1 L 272.5 -31.1 L 272.5 -31.1 Q 275.8 -31.1 278.2 -30 L 278.2 -30 L 289.1 -31.1 L 284.4 -6.2 L 284.4 -6.2 Q 284.2 -5.4 284.2 -4 L 284.2 -4 L 284.2 -4 Q 284.2 -2.6 285.1 -1.7 L 285.1 -1.7 L 285.1 -1.7 Q 285.9 -0.8 287.2 -0.7 L 287.2 -0.7 L 287.2 -0.7 Q 286.6 1.5 284.2 2.8 L 284.2 2.8 L 284.2 2.8 Q 281.9 4.1 279.3 4.1 L 279.3 4.1 L 279.3 4.1 Q 276.6 4.1 274.9 3.1 L 274.9 3.1 L 274.9 3.1 Q 273.1 2.1 272.6 0.4 L 272.6 0.4 L 272.6 0.4 Q 271.6 2 269.4 3 L 269.4 3 L 269.4 3 Q 267.2 4.1 264.3 4.1 L 264.3 4.1 L 264.3 4.1 Q 261.4 4.1 259 3.3 L 259 3.3 L 259 3.3 Q 256.7 2.5 255.2 0.9 Z M 268.7 -25.1 L 268.7 -25.1 L 268.7 -25.1 Q 267.9 -24 267.3 -22 L 267.3 -22 L 267.3 -22 Q 266.7 -20.1 265.6 -14.8 L 265.6 -14.8 L 265.6 -14.8 Q 264.5 -9.6 264.5 -5.9 L 264.5 -5.9 L 264.5 -5.9 Q 264.5 -2.2 265.1 -1.1 L 265.1 -1.1 L 265.1 -1.1 Q 265.7 0 266.7 0 L 266.7 0 L 266.7 0 Q 268.8 0 270.3 -2 L 270.3 -2 L 270.3 -2 Q 271.8 -3.9 272.3 -7.4 L 272.3 -7.4 L 275.7 -26.1 L 275.7 -26.1 Q 274.4 -27.3 272.8 -27.3 L 272.8 -27.3 L 272.8 -27.3 Q 271.3 -27.3 270.3 -26.8 L 270.3 -26.8 L 270.3 -26.8 Q 269.4 -26.3 268.7 -25.1 Z M 307.9 -0.7 L 307.9 -0.7 L 307.9 -0.7 Q 305.9 4.1 299.5 4.1 L 299.5 4.1 L 299.5 4.1 Q 296.3 4.1 294.3 1.8 L 294.3 1.8 L 294.3 1.8 Q 292.6 0 292.6 -2.1 L 292.6 -2.1 L 292.6 -2.1 Q 292.6 -6.9 294.9 -17.4 L 294.9 -17.4 L 299.5 -42 L 312.5 -43.3 L 306.3 -10.9 L 306.3 -10.9 Q 305.2 -6.2 305.2 -4.5 L 305.2 -4.5 L 305.2 -4.5 Q 305.2 -0.9 307.9 -0.7 Z M 328.6 -0.7 L 328.6 -0.7 L 328.6 -0.7 Q 326.6 4.1 320.3 4.1 L 320.3 4.1 L 320.3 4.1 Q 317.1 4.1 315 1.8 L 315 1.8 L 315 1.8 Q 313.4 0 313.4 -2.1 L 313.4 -2.1 L 313.4 -2.1 Q 313.4 -6.9 315.6 -17.4 L 315.6 -17.4 L 320.3 -42 L 333.3 -43.3 L 327.1 -10.9 L 327.1 -10.9 Q 326 -6.2 326 -4.5 L 326 -4.5 L 326 -4.5 Q 326 -0.9 328.6 -0.7 Z M 360 -8 L 360 -8 L 360 -8 Q 361.6 -6.9 361.6 -4.5 L 361.6 -4.5 L 361.6 -4.5 Q 361.6 -2.1 360.3 -0.6 L 360.3 -0.6 L 360.3 -0.6 Q 359.1 0.9 357.1 2 L 357.1 2 L 357.1 2 Q 353.1 4.1 348.6 4.1 L 348.6 4.1 L 348.6 4.1 Q 344.2 4.1 341.6 3.1 L 341.6 3.1 L 341.6 3.1 Q 339 2.1 337.3 0.4 L 337.3 0.4 L 337.3 0.4 Q 333.9 -3 333.9 -9.2 L 333.9 -9.2 L 333.9 -9.2 Q 333.9 -18.9 339.2 -24.8 L 339.2 -24.8 L 339.2 -24.8 Q 344.8 -31.1 354.6 -31.1 L 354.6 -31.1 L 354.6 -31.1 Q 360.7 -31.1 363.7 -28.6 L 363.7 -28.6 L 363.7 -28.6 Q 365.9 -26.7 365.9 -23.5 L 365.9 -23.5 L 365.9 -23.5 Q 365.9 -12.3 346.5 -12.3 L 346.5 -12.3 L 346.5 -12.3 Q 346.2 -10.6 346.2 -9.2 L 346.2 -9.2 L 346.2 -9.2 Q 346.2 -6.2 347.5 -5.1 L 347.5 -5.1 L 347.5 -5.1 Q 348.8 -4 351.3 -4 L 351.3 -4 L 351.3 -4 Q 353.7 -4 356.3 -5.1 L 356.3 -5.1 L 356.3 -5.1 Q 358.9 -6.2 360 -8 Z M 346.9 -15 L 346.9 -15 L 346.9 -15 Q 351.5 -15 354.1 -17.8 L 354.1 -17.8 L 354.1 -17.8 Q 356.7 -20.5 356.7 -24.8 L 356.7 -24.8 L 356.7 -24.8 Q 356.7 -26.3 356.2 -27.1 L 356.2 -27.1 L 356.2 -27.1 Q 355.6 -27.9 354.5 -27.9 L 354.5 -27.9 L 354.5 -27.9 Q 353.4 -27.9 352.5 -27.5 L 352.5 -27.5 L 352.5 -27.5 Q 351.6 -27 350.6 -25.6 L 350.6 -25.6 L 350.6 -25.6 Q 348.3 -22.4 346.9 -15 Z M 388.1 -15.2 L 388.1 -15.2 L 388.1 -15.2 Q 390.4 -19.3 390.4 -23.5 L 390.4 -23.5 L 390.4 -23.5 Q 390.4 -26.2 388.4 -26.2 L 388.4 -26.2 L 388.4 -26.2 Q 386.9 -26.2 385.3 -23.6 L 385.3 -23.6 L 385.3 -23.6 Q 383.6 -21 383.1 -17.6 L 383.1 -17.6 L 379.8 2.8 L 366.6 4.1 L 373.1 -29.9 L 383.6 -31.1 L 382.5 -24.7 L 382.5 -24.7 Q 385.6 -31.1 392.7 -31.1 L 392.7 -31.1 L 392.7 -31.1 Q 396.4 -31.1 398.4 -29.2 L 398.4 -29.2 L 398.4 -29.2 Q 400.4 -27.3 400.4 -23.4 L 400.4 -23.4 L 400.4 -23.4 Q 400.4 -19.4 397.8 -16.9 L 397.8 -16.9 L 397.8 -16.9 Q 395.2 -14.4 390.8 -14.4 L 390.8 -14.4 L 390.8 -14.4 Q 388.9 -14.4 388.1 -15.2 Z M 421.8 -4.4 L 421.8 -4.4 L 421.8 -4.4 Q 418.5 -1 412.4 -1 L 412.4 -1 L 412.4 -1 Q 404.8 -1 403.2 -6.6 L 403.2 -6.6 L 403.2 -6.6 Q 402.7 -8.2 402.7 -10.1 L 402.7 -10.1 L 402.7 -10.1 Q 402.7 -11.9 403 -13.9 L 403 -13.9 L 406 -29.9 L 419 -31.1 L 415.5 -12.5 L 415.5 -12.5 Q 415.4 -11.7 415.2 -10.8 L 415.2 -10.8 L 415.2 -10.8 Q 415 -9.9 415 -9 L 415 -9 L 415 -9 Q 415 -8 415.3 -7.4 L 415.3 -7.4 L 415.3 -7.4 Q 415.6 -6.8 416.1 -6.4 L 416.1 -6.4 L 416.1 -6.4 Q 416.9 -5.9 418.2 -5.9 L 418.2 -5.9 L 418.2 -5.9 Q 419.6 -5.9 420.8 -7.6 L 420.8 -7.6 L 420.8 -7.6 Q 422 -9.2 422.6 -12.1 L 422.6 -12.1 L 426.1 -29.9 L 438.7 -31.1 L 433.9 -6 L 433.9 -6 Q 431.5 6.3 426.7 11.2 L 426.7 11.2 L 426.7 11.2 Q 424.2 13.7 420.9 14.7 L 420.9 14.7 L 420.9 14.7 Q 417.7 15.6 413.5 15.6 L 413.5 15.6 L 413.5 15.6 Q 406.8 15.6 403 13.5 L 403 13.5 L 403 13.5 Q 399.1 11.4 399.1 7.9 L 399.1 7.9 L 399.1 7.9 Q 399.1 5.3 401.1 3.8 L 401.1 3.8 L 401.1 3.8 Q 403.1 2.3 406.2 2.3 L 406.2 2.3 L 406.2 2.3 Q 408.9 2.3 410.9 3.4 L 410.9 3.4 L 410.9 3.4 Q 412.1 4.1 412.7 5 L 412.7 5 L 412.7 5 Q 411.2 6.3 411.2 8.4 L 411.2 8.4 L 411.2 8.4 Q 411.2 11.2 413.8 11.2 L 413.8 11.2 L 413.8 11.2 Q 418 11.2 420.4 1.5 L 420.4 1.5 L 420.4 1.5 Q 421.1 -1.4 421.8 -4.4 Z" fill="url(#editing-glowing-gradient)"></path></g></g><style>text {
  font-size: 64px;
  font-family: Arial Black;
  dominant-baseline: central;
  text-anchor: middle;
}</style></svg>